<svg aria-hidden="true" style="position: absolute; width: 0; height: 0; overflow: hidden;" version="1.1" xmlns="http://www.w3.org/2000/svg" xmlns:xlink="http://www.w3.org/1999/xlink">
<defs>
<symbol id="icon-empirical" viewBox="0 0 321 32">
<title>empirical</title>
<path d="M29.473 26.273v4.675h-29.473v-29.895h29.18v4.675h-22.909v7.763h22.193v4.451h-22.193v8.332z"></path>
<path d="M39.495 1.052h9.488l10.049 20.925c0.374 0.777 0.705 1.691 0.944 2.64l0.022 0.102h0.129c0.298-1.1 0.628-2.026 1.018-2.92l-0.052 0.134 10.195-20.882h9.643v29.895h-5.77v-21.563c-0-0.042-0-0.092-0-0.141 0-1.319 0.091-2.617 0.267-3.887l-0.017 0.147h-0.207c-0.216 0.595-0.863 2.277-1.432 3.545l-10.868 21.9h-5.934l-10.652-21.891c-0.552-1.268-0.966-2.588-1.268-3.545h-0.198c0.138 0.968 0.216 2.086 0.216 3.223 0 0.232-0.003 0.462-0.010 0.693l0.001-0.034v21.563h-5.563z"></path>
<path d="M123.791 10.695c0 6.107-4.882 10.023-12.334 10.023h-12.886v10.23h-6.279v-29.895h19.838c7.202 0 11.661 3.666 11.661 9.643zM117.184 10.782c0-3.286-2.363-5.175-6.486-5.175h-12.127v10.566h12.075c4.071 0 6.538-2.027 6.538-5.391z"></path>
<path d="M131.666 30.948v-29.895h6.271v29.895z"></path>
<path d="M166.736 19.579h-11.153v11.368h-6.279v-29.895h19.916c8.884 0 11.454 4.839 11.454 9.134 0 3.329-1.811 7.288-7.194 8.625l8.332 12.127h-7.245zM155.584 15.155h12.291c4.761 0 6.193-2.527 6.193-4.882s-1.389-4.675-6.15-4.675h-12.334z"></path>
<path d="M190.447 30.948v-29.895h6.271v29.895z"></path>
<path d="M204.766 16.043c0-9.488 7.996-16.043 19.743-16.043 9.6 0 16.25 4.123 18.234 11.282l-6.572 0.975c-1.389-4.761-5.512-7.332-11.825-7.332-8.047 0-13.016 4.252-13.016 11.075 0 6.65 5.175 11.032 13.136 11.032 6.193 0 10.195-2.312 11.834-6.823l6.357 1.268c-2.527 6.779-8.97 10.523-18.484 10.523-11.877 0-19.407-6.271-19.407-15.957z"></path>
<path d="M275.252 24.634h-19.329l-3.2 6.314h-6.78l15.957-29.895h7.366l15.957 29.895h-6.771zM272.975 20.209l-3.864-7.659c-1.279-2.125-2.444-4.585-3.36-7.162l-0.090-0.29h-0.129c-1.017 2.872-2.181 5.331-3.558 7.649l0.108-0.197-3.881 7.659z"></path>
<path d="M292.804 1.052h6.279v24.824h21.641v5.098h-27.92z"></path>
</symbol>
<symbol id="icon-spirits" viewBox="0 0 225 32">
<title>spirits</title>
<path d="M0 22.909l5.218-2.484c2.070 4.416 6.616 6.9 13.688 6.9 6.4 0 9.35-1.389 9.35-4.502 0-2.527-1.725-3.666-6.4-4.123l-9.436-0.975c-7.073-0.716-10.402-3.364-10.402-8.548 0-5.805 5.52-9.177 15.37-9.177 8.548 0 14.102 2.588 17.113 7.763l-4.856 2.76c-1.984-3.787-5.986-5.848-12.507-5.848-5.727 0-8.798 1.432-8.798 4.166 0 2.484 1.553 3.45 6.314 3.916l8.798 0.863c7.875 0.794 11.213 3.243 11.213 8.548 0 6.357-5.606 9.807-16 9.807-9.695 0.026-16.078-3.088-18.665-9.065z"></path>
<path d="M74.989 10.695c0 6.107-4.882 10.023-12.334 10.023h-12.886v10.23h-6.271v-29.895h19.787c7.245 0 11.705 3.666 11.705 9.643zM68.382 10.782c0-3.286-2.363-5.175-6.486-5.175h-12.127v10.566h12.075c4.097 0 6.538-2.027 6.538-5.391z"></path>
<path d="M82.864 30.948v-29.895h6.279v29.895z"></path>
<path d="M117.943 19.579h-11.161v11.368h-6.271v-29.895h19.916c8.884 0 11.446 4.839 11.446 9.134 0 3.329-1.803 7.288-7.194 8.625l8.332 12.127h-7.237zM106.782 15.155h12.291c4.761 0 6.193-2.527 6.193-4.882s-1.389-4.675-6.15-4.675h-12.334z"></path>
<path d="M141.645 30.948v-29.895h6.271v29.895z"></path>
<path d="M188.343 6.038h-13.395v24.91h-6.271v-24.91h-13.421v-4.985h33.052z"></path>
<path d="M190.534 22.909l5.175-2.484c2.061 4.416 6.607 6.9 13.688 6.9 6.4 0 9.341-1.389 9.341-4.502 0-2.527-1.768-3.666-6.4-4.123l-9.384-0.975c-7.073-0.716-10.402-3.364-10.402-8.548 0-5.805 5.52-9.177 15.37-9.177 8.548 0 14.102 2.588 17.095 7.763l-4.847 2.777c-1.975-3.787-5.977-5.848-12.498-5.848-5.727 0-8.806 1.432-8.806 4.166 0 2.484 1.561 3.45 6.314 3.916l8.806 0.863c7.875 0.794 11.213 3.243 11.213 8.548 0 6.357-5.598 9.807-16 9.807-9.703 0.009-16.060-3.105-18.665-9.082z"></path>
</symbol>
</defs>
</svg>
