<?xml version="1.0" encoding="UTF-8"?>
<svg width="332px" height="68px" viewBox="0 0 332 68" version="1.1" xmlns="http://www.w3.org/2000/svg" xmlns:xlink="http://www.w3.org/1999/xlink">
    <!-- Generator: Sketch 49.3 (51167) - http://www.bohemiancoding.com/sketch -->
    <title>Group</title>
    <desc>Created with Sketch.</desc>
    <defs></defs>
    <g id="Page-1" stroke="none" stroke-width="1" fill="none" fill-rule="evenodd">
        <g id="Facebook-/-Shared-Image" transform="translate(-434.000000, -281.000000)" fill="#000000">
            <g id="Group" transform="translate(434.000000, 281.000000)">
                <path d="M0.916,53 L0.916,1.88 L7.684,1.88 L31.372,40.904 C32.668,43.136 33.604,44.864 34.396,46.808 L34.54,46.808 C34.396,45.08 34.324,43.28 34.324,40.544 L34.324,1.88 L39.364,1.88 L39.364,53 L32.596,53 L8.908,13.904 C7.612,11.672 6.676,10.088 5.884,8 L5.74,8 C5.884,9.728 5.956,11.528 5.956,14.264 L5.956,53 L0.916,53 Z M50.404,10.52 L50.404,2.6 L56.092,2.6 L56.092,10.52 L50.404,10.52 Z M50.764,53 L50.764,17 L55.732,17 L55.732,53 L50.764,53 Z M75.124,53.864 C67.924,53.864 63.172,49.688 63.172,43.496 C63.172,40.04 64.684,37.232 67.564,35.432 C70.156,33.92 73.684,32.912 79.372,32.192 L87.364,31.256 L87.364,30.68 C87.364,23.264 84.772,20.312 78.652,20.312 C73.252,20.312 69.94,23.12 69.652,28.232 L64.252,28.232 C64.684,20.816 70.3,16.136 78.58,16.136 C88.228,16.136 92.404,20.6 92.404,31.04 L92.404,40.4 C92.404,46.016 92.764,50.048 93.556,53 L88.3,53 C87.94,51.056 87.724,48.464 87.652,45.8 C85.924,50.84 81.316,53.864 75.124,53.864 Z M76.276,49.688 C82.972,49.688 87.436,44.648 87.436,37.304 L87.436,35 L77.212,36.44 C71.092,37.304 68.428,39.392 68.428,43.352 C68.428,47.24 71.452,49.688 76.276,49.688 Z M107.476,0.8 L107.476,53 L102.508,53 L102.508,0.8 L107.476,0.8 Z M123.844,0.8 L123.844,53 L118.876,53 L118.876,0.8 L123.844,0.8 Z M183.58,53 L165.796,26.288 L157.228,35.648 L157.228,53 L151.684,53 L151.684,1.88 L157.228,1.88 L157.228,28.808 L181.492,1.88 L188.548,1.88 L169.9,22.112 L169.684,22.328 L190.06,53 L183.58,53 Z M221.476,32.84 L221.476,36.296 L195.34,36.296 C195.412,44.432 199.876,49.4 206.86,49.4 C211.9,49.4 215.5,46.592 217.012,41.696 L221.26,43.424 C219.028,50.12 213.772,53.864 206.5,53.864 C196.276,53.864 190.3,47.312 190.3,35.216 C190.3,23.408 196.348,16.136 206.284,16.136 C215.932,16.136 221.476,21.896 221.476,32.84 Z M216.364,32.192 L216.364,31.544 C216.364,24.128 212.62,20.168 206.212,20.168 C199.516,20.168 195.484,24.776 195.34,32.192 L216.364,32.192 Z M229.132,53 L229.132,17 L233.884,17 L233.884,24.92 C236.044,19.016 240.22,15.992 246.196,15.992 C254.26,15.992 258.436,21.032 258.436,30.752 L258.436,53 L253.396,53 L253.396,31.04 C253.396,24.056 250.372,20.456 244.684,20.456 C238.204,20.456 234.1,25.64 234.1,34.064 L234.1,53 L229.132,53 Z M267.82,53 L267.82,17 L272.572,17 L272.572,24.92 C274.732,19.016 278.908,15.992 284.884,15.992 C292.948,15.992 297.124,21.032 297.124,30.752 L297.124,53 L292.084,53 L292.084,31.04 C292.084,24.056 289.06,20.456 283.372,20.456 C276.892,20.456 272.788,25.64 272.788,34.064 L272.788,53 L267.82,53 Z M304.636,67.472 C303.556,67.472 302.548,67.4 301.468,67.184 L301.468,62.72 C302.332,62.864 303.196,62.936 303.988,62.936 C308.668,62.936 310.9,60.344 312.628,55.376 L313.564,52.712 L299.164,17 L304.78,17 L314.428,42.704 C315.148,44.576 315.652,46.232 316.012,47.6 L316.156,47.6 C316.516,46.232 317.02,44.576 317.668,42.632 L326.452,17 L331.852,17 L317.812,55.304 C314.572,64.232 310.612,67.472 304.636,67.472 Z" id="Niall-Kenny"></path>
            </g>
        </g>
    </g>
</svg>