<?xml version="1.0" encoding="UTF-8"?>
<svg width="857px" height="50px" viewBox="0 0 857 50" version="1.1" xmlns="http://www.w3.org/2000/svg" xmlns:xlink="http://www.w3.org/1999/xlink">
    <!-- Generator: Sketch 49.3 (51167) - http://www.bohemiancoding.com/sketch -->
    <title>EMPIRICAL SPIRITS</title>
    <desc>Created with Sketch.</desc>
    <defs></defs>
    <g id="Page-1" stroke="none" stroke-width="1" fill="none" fill-rule="evenodd">
        <g id="Facebook-/-Meta-Image" transform="translate(-172.000000, -288.000000)" fill="#000000">
            <path d="M181.553778,328.896 L216.817778,328.896 L216.817778,336 L172.017778,336 L172.017778,290.56 L216.369778,290.56 L216.369778,297.664 L181.553778,297.664 L181.553778,309.44 L215.281778,309.44 L215.281778,316.224 L181.553778,316.224 L181.553778,328.896 Z M231.765333,336 L231.765333,290.56 L246.165333,290.56 L261.461333,322.368 C262.101333,323.84 262.677333,325.312 262.933333,326.528 L263.125333,326.528 C263.381333,325.312 264.021333,323.776 264.597333,322.304 L280.085333,290.56 L294.741333,290.56 L294.741333,336 L285.973333,336 L285.973333,303.232 C285.973333,301.312 286.101333,298.88 286.357333,297.344 L286.037333,297.344 C285.717333,298.24 284.757333,300.8 283.861333,302.72 L267.349333,336 L258.325333,336 L242.133333,302.72 C241.301333,300.8 240.661333,298.752 240.213333,297.344 L239.893333,297.344 C240.149333,298.752 240.213333,300.864 240.213333,303.232 L240.213333,336 L231.765333,336 Z M341.816889,290.56 C352.824889,290.56 359.608889,296.128 359.608889,305.216 C359.608889,314.496 352.184889,320.448 340.856889,320.448 L321.272889,320.448 L321.272889,336 L311.736889,336 L311.736889,290.56 L341.816889,290.56 Z M339.640889,313.536 C345.848889,313.536 349.560889,310.464 349.560889,305.344 C349.560889,300.352 345.976889,297.472 339.704889,297.472 L321.272889,297.472 L321.272889,313.536 L339.640889,313.536 Z M380.828444,336 L371.292444,336 L371.292444,290.56 L380.828444,290.56 L380.828444,336 Z M436.224,336 L424.32,318.72 L407.36,318.72 L407.36,336 L397.824,336 L397.824,290.56 L428.096,290.56 C441.6,290.56 445.504,297.92 445.504,304.448 C445.504,309.504 442.752,315.52 434.56,317.568 L447.232,336 L436.224,336 Z M407.36,297.472 L407.36,312 L426.048,312 C433.28,312 435.456,308.16 435.456,304.576 C435.456,301.12 433.344,297.472 426.112,297.472 L407.36,297.472 Z M469.603555,336 L460.067555,336 L460.067555,290.56 L469.603555,290.56 L469.603555,336 Z M511.047111,337.6 C492.999111,337.6 481.543111,328.064 481.543111,313.344 C481.543111,298.88 493.703111,288.96 511.559111,288.96 C526.151111,288.96 536.263111,295.232 539.271111,306.112 L529.287111,307.584 C527.175111,300.352 520.903111,296.448 511.303111,296.448 C499.079111,296.448 491.527111,302.912 491.527111,313.28 C491.527111,323.392 499.399111,330.048 511.495111,330.048 C520.903111,330.048 526.983111,326.528 529.479111,319.68 L539.143111,321.6 C535.303111,331.904 525.511111,337.6 511.047111,337.6 Z M593.258667,336 L588.394667,326.4 L559.018667,326.4 L554.154667,336 L543.850667,336 L568.106667,290.56 L579.306667,290.56 L603.562667,336 L593.258667,336 Z M562.474667,319.68 L584.938667,319.68 L579.050667,308.032 C576.298667,302.912 574.954667,300.288 573.802667,296.704 L573.610667,296.704 C572.458667,300.288 571.114667,302.912 568.362667,308.032 L562.474667,319.68 Z M614.798222,336 L614.798222,290.56 L624.334222,290.56 L624.334222,328.256 L657.230222,328.256 L657.230222,336 L614.798222,336 Z M716.053333,337.6 C701.333333,337.6 691.669333,332.864 687.701333,323.776 L695.637333,320 C698.773333,326.72 705.685333,330.432 716.437333,330.432 C726.165333,330.432 730.645333,328.32 730.645333,323.584 C730.645333,319.744 727.957333,318.016 720.917333,317.312 L706.581333,315.904 C695.829333,314.816 690.773333,310.784 690.773333,302.912 C690.773333,294.08 699.157333,288.96 714.133333,288.96 C727.125333,288.96 735.573333,292.864 740.117333,300.736 L732.757333,304.96 C729.749333,299.2 723.669333,296.064 713.749333,296.064 C705.045333,296.064 700.373333,298.24 700.373333,302.4 C700.373333,306.176 702.741333,307.584 709.973333,308.352 L723.349333,309.696 C735.317333,310.912 740.373333,314.624 740.373333,322.688 C740.373333,332.352 731.861333,337.6 716.053333,337.6 Z M783.608889,290.56 C794.616889,290.56 801.400889,296.128 801.400889,305.216 C801.400889,314.496 793.976889,320.448 782.648889,320.448 L763.064889,320.448 L763.064889,336 L753.528889,336 L753.528889,290.56 L783.608889,290.56 Z M781.432889,313.536 C787.640889,313.536 791.352889,310.464 791.352889,305.344 C791.352889,300.352 787.768889,297.472 781.496889,297.472 L763.064889,297.472 L763.064889,313.536 L781.432889,313.536 Z M822.620445,336 L813.084445,336 L813.084445,290.56 L822.620445,290.56 L822.620445,336 Z M878.016,336 L866.112,318.72 L849.152,318.72 L849.152,336 L839.616,336 L839.616,290.56 L869.888,290.56 C883.392,290.56 887.296,297.92 887.296,304.448 C887.296,309.504 884.544,315.52 876.352,317.568 L889.024,336 L878.016,336 Z M849.152,297.472 L849.152,312 L867.84,312 C875.072,312 877.248,308.16 877.248,304.576 C877.248,301.12 875.136,297.472 867.904,297.472 L849.152,297.472 Z M911.395556,336 L901.859556,336 L901.859556,290.56 L911.395556,290.56 L911.395556,336 Z M972.551111,290.56 L972.551111,298.176 L952.199111,298.176 L952.199111,336 L942.663111,336 L942.663111,298.176 L922.311111,298.176 L922.311111,290.56 L972.551111,290.56 Z M1003.94667,337.6 C989.226667,337.6 979.562667,332.864 975.594667,323.776 L983.530667,320 C986.666667,326.72 993.578667,330.432 1004.33067,330.432 C1014.05867,330.432 1018.53867,328.32 1018.53867,323.584 C1018.53867,319.744 1015.85067,318.016 1008.81067,317.312 L994.474667,315.904 C983.722667,314.816 978.666667,310.784 978.666667,302.912 C978.666667,294.08 987.050667,288.96 1002.02667,288.96 C1015.01867,288.96 1023.46667,292.864 1028.01067,300.736 L1020.65067,304.96 C1017.64267,299.2 1011.56267,296.064 1001.64267,296.064 C992.938667,296.064 988.266667,298.24 988.266667,302.4 C988.266667,306.176 990.634667,307.584 997.866667,308.352 L1011.24267,309.696 C1023.21067,310.912 1028.26667,314.624 1028.26667,322.688 C1028.26667,332.352 1019.75467,337.6 1003.94667,337.6 Z" id="EMPIRICAL-SPIRITS"></path>
        </g>
    </g>
</svg>