<?xml version="1.0" encoding="UTF-8"?>
<svg width="1440px" height="415px" viewBox="0 0 1440 415" version="1.1" xmlns="http://www.w3.org/2000/svg" xmlns:xlink="http://www.w3.org/1999/xlink">
    <!-- Generator: Sketch 49.3 (51167) - http://www.bohemiancoding.com/sketch -->
    <title>EMPIRICAL + SPIRITS + EMPIRICAL Mask</title>
    <desc>Created with Sketch.</desc>
    <defs>
        <rect id="path-1" x="0" y="0" width="1440" height="460"></rect>
    </defs>
    <g id="Page-1" stroke="none" stroke-width="1" fill="none" fill-rule="evenodd">
        <g id="Post-Image-Copy" transform="translate(0.000000, -215.000000)">
            <g id="EMPIRICAL-+-SPIRITS-+-EMPIRICAL-Mask" transform="translate(0.000000, 201.000000)">
                <mask id="mask-2" fill="white">
                    <use xlink:href="#path-1"></use>
                </mask>
                <g id="Mask"></g>
                <path d="M767.38,122.02 L866.56,122.02 L866.56,142 L740.56,142 L740.56,14.2 L865.3,14.2 L865.3,34.18 L767.38,34.18 L767.38,67.3 L862.24,67.3 L862.24,86.38 L767.38,86.38 L767.38,122.02 Z M908.6,142 L908.6,14.2 L949.1,14.2 L992.12,103.66 C993.92,107.8 995.54,111.94 996.26,115.36 L996.8,115.36 C997.52,111.94 999.32,107.62 1000.94,103.48 L1044.5,14.2 L1085.72,14.2 L1085.72,142 L1061.06,142 L1061.06,49.84 C1061.06,44.44 1061.42,37.6 1062.14,33.28 L1061.24,33.28 C1060.34,35.8 1057.64,43 1055.12,48.4 L1008.68,142 L983.3,142 L937.76,48.4 C935.42,43 933.62,37.24 932.36,33.28 L931.46,33.28 C932.18,37.24 932.36,43.18 932.36,49.84 L932.36,142 L908.6,142 Z M1218.12,14.2 C1249.08,14.2 1268.16,29.86 1268.16,55.42 C1268.16,81.52 1247.28,98.26 1215.42,98.26 L1160.34,98.26 L1160.34,142 L1133.52,142 L1133.52,14.2 L1218.12,14.2 Z M1212,78.82 C1229.46,78.82 1239.9,70.18 1239.9,55.78 C1239.9,41.74 1229.82,33.64 1212.18,33.64 L1160.34,33.64 L1160.34,78.82 L1212,78.82 Z M1327.84,142 L1301.02,142 L1301.02,14.2 L1327.84,14.2 L1327.84,142 Z M1483.64,142 L1450.16,93.4 L1402.46,93.4 L1402.46,142 L1375.64,142 L1375.64,14.2 L1460.78,14.2 C1498.76,14.2 1509.74,34.9 1509.74,53.26 C1509.74,67.48 1502,84.4 1478.96,90.16 L1514.6,142 L1483.64,142 Z M1402.46,33.64 L1402.46,74.5 L1455.02,74.5 C1475.36,74.5 1481.48,63.7 1481.48,53.62 C1481.48,43.9 1475.54,33.64 1455.2,33.64 L1402.46,33.64 Z M1577.52,142 L1550.7,142 L1550.7,14.2 L1577.52,14.2 L1577.52,142 Z M1694.08,146.5 C1643.32,146.5 1611.1,119.68 1611.1,78.28 C1611.1,37.6 1645.3,9.7 1695.52,9.7 C1736.56,9.7 1765,27.34 1773.46,57.94 L1745.38,62.08 C1739.44,41.74 1721.8,30.76 1694.8,30.76 C1660.42,30.76 1639.18,48.94 1639.18,78.1 C1639.18,106.54 1661.32,125.26 1695.34,125.26 C1721.8,125.26 1738.9,115.36 1745.92,96.1 L1773.1,101.5 C1762.3,130.48 1734.76,146.5 1694.08,146.5 Z M1925.3,142 L1911.62,115 L1829,115 L1815.32,142 L1786.34,142 L1854.56,14.2 L1886.06,14.2 L1954.28,142 L1925.3,142 Z M1838.72,96.1 L1901.9,96.1 L1885.34,63.34 C1877.6,48.94 1873.82,41.56 1870.58,31.48 L1870.04,31.48 C1866.8,41.56 1863.02,48.94 1855.28,63.34 L1838.72,96.1 Z M1985.88,142 L1985.88,14.2 L2012.7,14.2 L2012.7,120.22 L2105.22,120.22 L2105.22,142 L1985.88,142 Z" id="EMPIRICAL" fill="#FFFFFF" mask="url(#mask-2)"></path>
                <path d="M632.98,428.5 C591.58,428.5 564.4,415.18 553.24,389.62 L575.56,379 C584.38,397.9 603.82,408.34 634.06,408.34 C661.42,408.34 674.02,402.4 674.02,389.08 C674.02,378.28 666.46,373.42 646.66,371.44 L606.34,367.48 C576.1,364.42 561.88,353.08 561.88,330.94 C561.88,306.1 585.46,291.7 627.58,291.7 C664.12,291.7 687.88,302.68 700.66,324.82 L679.96,336.7 C671.5,320.5 654.4,311.68 626.5,311.68 C602.02,311.68 588.88,317.8 588.88,329.5 C588.88,340.12 595.54,344.08 615.88,346.24 L653.5,350.02 C687.16,353.44 701.38,363.88 701.38,386.56 C701.38,413.74 677.44,428.5 632.98,428.5 Z M822.98,296.2 C853.94,296.2 873.02,311.86 873.02,337.42 C873.02,363.52 852.14,380.26 820.28,380.26 L765.2,380.26 L765.2,424 L738.38,424 L738.38,296.2 L822.98,296.2 Z M816.86,360.82 C834.32,360.82 844.76,352.18 844.76,337.78 C844.76,323.74 834.68,315.64 817.04,315.64 L765.2,315.64 L765.2,360.82 L816.86,360.82 Z M932.7,424 L905.88,424 L905.88,296.2 L932.7,296.2 L932.7,424 Z M1088.5,424 L1055.02,375.4 L1007.32,375.4 L1007.32,424 L980.5,424 L980.5,296.2 L1065.64,296.2 C1103.62,296.2 1114.6,316.9 1114.6,335.26 C1114.6,349.48 1106.86,366.4 1083.82,372.16 L1119.46,424 L1088.5,424 Z M1007.32,315.64 L1007.32,356.5 L1059.88,356.5 C1080.22,356.5 1086.34,345.7 1086.34,335.62 C1086.34,325.9 1080.4,315.64 1060.06,315.64 L1007.32,315.64 Z M1182.38,424 L1155.56,424 L1155.56,296.2 L1182.38,296.2 L1182.38,424 Z M1354.38,296.2 L1354.38,317.62 L1297.14,317.62 L1297.14,424 L1270.32,424 L1270.32,317.62 L1213.08,317.62 L1213.08,296.2 L1354.38,296.2 Z M1442.68,428.5 C1401.28,428.5 1374.1,415.18 1362.94,389.62 L1385.26,379 C1394.08,397.9 1413.52,408.34 1443.76,408.34 C1471.12,408.34 1483.72,402.4 1483.72,389.08 C1483.72,378.28 1476.16,373.42 1456.36,371.44 L1416.04,367.48 C1385.8,364.42 1371.58,353.08 1371.58,330.94 C1371.58,306.1 1395.16,291.7 1437.28,291.7 C1473.82,291.7 1497.58,302.68 1510.36,324.82 L1489.66,336.7 C1481.2,320.5 1464.1,311.68 1436.2,311.68 C1411.72,311.68 1398.58,317.8 1398.58,329.5 C1398.58,340.12 1405.24,344.08 1425.58,346.24 L1463.2,350.02 C1496.86,353.44 1511.08,363.88 1511.08,386.56 C1511.08,413.74 1487.14,428.5 1442.68,428.5 Z" id="SPIRITS" fill="#FFFFFF" mask="url(#mask-2)"></path>
                <path d="M-789.62,262.02 L-690.44,262.02 L-690.44,282 L-816.44,282 L-816.44,154.2 L-691.7,154.2 L-691.7,174.18 L-789.62,174.18 L-789.62,207.3 L-694.76,207.3 L-694.76,226.38 L-789.62,226.38 L-789.62,262.02 Z M-648.4,282 L-648.4,154.2 L-607.9,154.2 L-564.88,243.66 C-563.08,247.8 -561.46,251.94 -560.74,255.36 L-560.2,255.36 C-559.48,251.94 -557.68,247.62 -556.06,243.48 L-512.5,154.2 L-471.28,154.2 L-471.28,282 L-495.94,282 L-495.94,189.84 C-495.94,184.44 -495.58,177.6 -494.86,173.28 L-495.76,173.28 C-496.66,175.8 -499.36,183 -501.88,188.4 L-548.32,282 L-573.7,282 L-619.24,188.4 C-621.58,183 -623.38,177.24 -624.64,173.28 L-625.54,173.28 C-624.82,177.24 -624.64,183.18 -624.64,189.84 L-624.64,282 L-648.4,282 Z M-338.88,154.2 C-307.92,154.2 -288.84,169.86 -288.84,195.42 C-288.84,221.52 -309.72,238.26 -341.58,238.26 L-396.66,238.26 L-396.66,282 L-423.48,282 L-423.48,154.2 L-338.88,154.2 Z M-345,218.82 C-327.54,218.82 -317.1,210.18 -317.1,195.78 C-317.1,181.74 -327.18,173.64 -344.82,173.64 L-396.66,173.64 L-396.66,218.82 L-345,218.82 Z M-229.16,282 L-255.98,282 L-255.98,154.2 L-229.16,154.2 L-229.16,282 Z M-73.36,282 L-106.84,233.4 L-154.54,233.4 L-154.54,282 L-181.36,282 L-181.36,154.2 L-96.22,154.2 C-58.24,154.2 -47.26,174.9 -47.26,193.26 C-47.26,207.48 -55,224.4 -78.04,230.16 L-42.4,282 L-73.36,282 Z M-154.54,173.64 L-154.54,214.5 L-101.98,214.5 C-81.64,214.5 -75.52,203.7 -75.52,193.62 C-75.52,183.9 -81.46,173.64 -101.8,173.64 L-154.54,173.64 Z M20.52,282 L-6.3,282 L-6.3,154.2 L20.52,154.2 L20.52,282 Z M137.08,286.5 C86.32,286.5 54.1,259.68 54.1,218.28 C54.1,177.6 88.3,149.7 138.52,149.7 C179.56,149.7 208,167.34 216.46,197.94 L188.38,202.08 C182.44,181.74 164.8,170.76 137.8,170.76 C103.42,170.76 82.18,188.94 82.18,218.1 C82.18,246.54 104.32,265.26 138.34,265.26 C164.8,265.26 181.9,255.36 188.92,236.1 L216.1,241.5 C205.3,270.48 177.76,286.5 137.08,286.5 Z M368.3,282 L354.62,255 L272,255 L258.32,282 L229.34,282 L297.56,154.2 L329.06,154.2 L397.28,282 L368.3,282 Z M281.72,236.1 L344.9,236.1 L328.34,203.34 C320.6,188.94 316.82,181.56 313.58,171.48 L313.04,171.48 C309.8,181.56 306.02,188.94 298.28,203.34 L281.72,236.1 Z M428.88,282 L428.88,154.2 L455.7,154.2 L455.7,260.22 L548.22,260.22 L548.22,282 L428.88,282 Z" id="EMPIRICAL" fill="#FFFFFF" mask="url(#mask-2)"></path>
            </g>
        </g>
    </g>
</svg>