<?xml version="1.0" standalone="no"?>
<!DOCTYPE svg PUBLIC "-//W3C//DTD SVG 20010904//EN"
 "http://www.w3.org/TR/2001/REC-SVG-20010904/DTD/svg10.dtd">
<svg version="1.0" xmlns="http://www.w3.org/2000/svg"
 width="700.000000pt" height="700.000000pt" viewBox="0 0 700.000000 700.000000"
 preserveAspectRatio="xMidYMid meet">
<metadata>
Created by potrace 1.11, written by Peter Selinger 2001-2013
</metadata>
<g transform="translate(0.000000,700.000000) scale(0.100000,-0.100000)"
fill="#000000" stroke="none">
<path d="M3230 6180 c-212 -27 -379 -62 -551 -116 -162 -52 -414 -163 -534
-237 -243 -150 -358 -240 -546 -427 -257 -256 -467 -568 -587 -870 -41 -106
-45 -115 -48 -125 -1 -5 -13 -41 -27 -80 -13 -38 -24 -72 -24 -75 -1 -3 -6
-25 -13 -50 -13 -47 -18 -69 -26 -110 -3 -14 -9 -41 -14 -60 -7 -30 -11 -55
-25 -150 -21 -139 -28 -552 -12 -670 4 -30 9 -66 11 -80 11 -84 20 -132 33
-190 8 -36 16 -73 18 -82 16 -79 88 -300 127 -388 160 -364 327 -611 592 -875
263 -262 516 -433 861 -580 175 -74 488 -161 655 -181 132 -15 208 -19 385
-19 272 0 372 11 615 66 283 65 581 191 840 356 335 214 671 566 868 908 64
112 182 363 182 388 0 7 4 17 9 22 13 15 90 264 106 343 25 128 36 184 40 222
3 25 8 72 13 105 9 80 9 472 -1 560 -13 117 -16 137 -33 220 -81 415 -244 781
-501 1123 -166 221 -475 506 -691 639 -35 21 -75 46 -90 55 -45 29 -202 109
-287 145 -238 103 -440 159 -760 208 -63 10 -513 13 -585 5z"/>
</g>
</svg>
