<svg aria-hidden="true" style="position: absolute; width: 0; height: 0; overflow: hidden;" version="1.1" xmlns="http://www.w3.org/2000/svg" xmlns:xlink="http://www.w3.org/1999/xlink">
<defs>
<symbol id="icon-empirical" viewBox="0 0 241 24">
<title>empirical</title>
<path d="M22.105 19.705v3.506h-22.105v-22.422h21.885v3.506h-17.182v5.822h16.645v3.338h-16.645v6.249z"></path>
<path d="M29.622 0.789h7.116l7.536 15.694c0.281 0.583 0.529 1.268 0.708 1.98l0.016 0.077h0.097c0.223-0.825 0.471-1.52 0.764-2.19l-0.039 0.1 7.646-15.661h7.232v22.422h-4.328v-16.173c0-0.031 0-0.069 0-0.106 0-0.989 0.068-1.963 0.2-2.915l-0.013 0.11h-0.155c-0.162 0.446-0.647 1.708-1.074 2.659l-8.151 16.425h-4.451l-7.989-16.418c-0.414-0.951-0.725-1.941-0.951-2.659h-0.149c0.103 0.726 0.162 1.565 0.162 2.417 0 0.174-0.002 0.347-0.007 0.519l0.001-0.025v16.173h-4.173z"></path>
<path d="M92.843 8.022c0 4.58-3.661 7.517-9.251 7.517h-9.665v7.672h-4.709v-22.422h14.879c5.402 0 8.746 2.749 8.746 7.232zM87.888 8.086c0-2.465-1.773-3.881-4.865-3.881h-9.095v7.925h9.057c3.053 0 4.904-1.52 4.904-4.043z"></path>
<path d="M98.749 23.211v-22.422h4.703v22.422z"></path>
<path d="M125.052 14.685h-8.364v8.526h-4.709v-22.422h14.937c6.663 0 8.591 3.629 8.591 6.851 0 2.497-1.358 5.466-5.395 6.469l6.249 9.095h-5.434zM116.688 11.366h9.218c3.571 0 4.645-1.895 4.645-3.661s-1.042-3.506-4.612-3.506h-9.251z"></path>
<path d="M142.836 23.211v-22.422h4.703v22.422z"></path>
<path d="M153.574 12.032c0-7.116 5.997-12.032 14.808-12.032 7.2 0 12.188 3.092 13.675 8.461l-4.929 0.731c-1.042-3.571-4.134-5.499-8.869-5.499-6.036 0-9.762 3.189-9.762 8.306 0 4.988 3.881 8.274 9.852 8.274 4.645 0 7.646-1.734 8.875-5.117l4.768 0.951c-1.895 5.085-6.728 7.892-13.863 7.892-8.908 0-14.555-4.703-14.555-11.968z"></path>
<path d="M206.439 18.475h-14.497l-2.4 4.735h-5.085l11.968-22.422h5.525l11.968 22.422h-5.078zM204.731 15.157l-2.898-5.744c-0.959-1.594-1.833-3.439-2.52-5.372l-0.067-0.217h-0.097c-0.763 2.154-1.636 3.998-2.669 5.737l0.081-0.148-2.911 5.744z"></path>
<path d="M219.603 0.789h4.709v18.618h16.231v3.823h-20.94z"></path>
</symbol>
<symbol id="icon-spirits" viewBox="0 0 169 24">
<title>spirits</title>
<path d="M0 17.182l3.914-1.863c1.553 3.312 4.962 5.175 10.266 5.175 4.8 0 7.012-1.042 7.012-3.377 0-1.895-1.294-2.749-4.8-3.092l-7.077-0.731c-5.305-0.537-7.802-2.523-7.802-6.411 0-4.354 4.14-6.883 11.528-6.883 6.411 0 10.577 1.941 12.834 5.822l-3.642 2.070c-1.488-2.84-4.489-4.386-9.38-4.386-4.295 0-6.598 1.074-6.598 3.125 0 1.863 1.164 2.588 4.735 2.937l6.598 0.647c5.906 0.595 8.41 2.432 8.41 6.411 0 4.768-4.205 7.355-12 7.355-7.271 0.019-12.058-2.316-13.999-6.799z"></path>
<path d="M56.242 8.022c0 4.58-3.661 7.517-9.251 7.517h-9.665v7.672h-4.703v-22.422h14.84c5.434 0 8.778 2.749 8.778 7.232zM51.286 8.086c0-2.465-1.773-3.881-4.865-3.881h-9.095v7.925h9.057c3.073 0 4.904-1.52 4.904-4.043z"></path>
<path d="M62.148 23.211v-22.422h4.709v22.422z"></path>
<path d="M88.457 14.685h-8.371v8.526h-4.703v-22.422h14.937c6.663 0 8.584 3.629 8.584 6.851 0 2.497-1.352 5.466-5.395 6.469l6.249 9.095h-5.427zM80.086 11.366h9.218c3.571 0 4.645-1.895 4.645-3.661s-1.042-3.506-4.612-3.506h-9.251z"></path>
<path d="M106.234 23.211v-22.422h4.703v22.422z"></path>
<path d="M141.257 4.528h-10.046v18.682h-4.703v-18.682h-10.066v-3.739h24.789z"></path>
<path d="M142.9 17.182l3.881-1.863c1.546 3.312 4.955 5.175 10.266 5.175 4.8 0 7.006-1.042 7.006-3.377 0-1.895-1.326-2.749-4.8-3.092l-7.038-0.731c-5.305-0.537-7.802-2.523-7.802-6.411 0-4.354 4.14-6.883 11.528-6.883 6.411 0 10.577 1.941 12.822 5.822l-3.636 2.083c-1.481-2.84-4.483-4.386-9.374-4.386-4.295 0-6.605 1.074-6.605 3.125 0 1.863 1.171 2.588 4.735 2.937l6.605 0.647c5.906 0.595 8.41 2.432 8.41 6.411 0 4.768-4.198 7.355-12 7.355-7.278 0.006-12.045-2.329-13.999-6.812z"></path>
</symbol>
<symbol id="icon-send" viewBox="0 0 24 24">
<title>send</title>
<path d="M23 1.9c0-0.1 0-0.2-0.1-0.3 0 0 0-0.1 0-0.1 0-0.1-0.1-0.2-0.2-0.3s-0.2-0.1-0.3-0.2c0 0-0.1 0-0.1 0-0.1 0-0.2 0-0.3-0.1 0 0.1 0 0.1 0 0.1-0.1 0-0.2 0-0.3 0.1l-20 7c-0.4 0.1-0.7 0.4-0.7 0.9 0 0.4 0.2 0.8 0.6 1l8.6 3.8 3.8 8.6c0.2 0.4 0.5 0.6 0.9 0.6 0 0 0 0 0 0 0.4 0 0.8-0.3 0.9-0.7l7-20c0.2-0.1 0.2-0.2 0.2-0.4 0 0.1 0 0.1 0 0zM18.2 4.4l-7.4 7.4-6.1-2.7 13.5-4.7zM14.9 19.3l-2.7-6.1 7.4-7.4-4.7 13.5z"></path>
</symbol>
<symbol id="icon-twitter" viewBox="0 0 24 24">
<title>twitter</title>
<path d="M23.6 2.2c-0.3-0.2-0.8-0.2-1.1 0-0.7 0.5-1.5 0.9-2.3 1.2-2-1.8-5.1-1.9-7.2-0.1-1.3 1.1-2 2.6-2 4.2-2.9-0.2-5.5-1.7-7.2-4.1-0.2-0.3-0.5-0.4-0.9-0.4s-0.7 0.3-0.8 0.6c-0.1 0.1-1.1 2.5-1 5.4 0.1 2.5 1.1 5.7 4.8 8-1.5 0.7-3.2 1-4.9 1-0.4 0-0.9 0.3-1 0.7s0.1 0.9 0.5 1.1c2.5 1.4 5.2 2.1 7.7 2.1s4.9-0.6 7.1-1.9c4.3-2.4 6.7-7 6.7-12.5 0-0.2 0-0.3 0-0.5 1-1.1 1.7-2.4 2-3.8 0.1-0.4-0.1-0.8-0.4-1zM20.2 6c-0.2 0.2-0.3 0.6-0.3 0.9 0.1 0.2 0.1 0.4 0.1 0.6 0 4.8-2.1 8.7-5.7 10.8-2.8 1.6-6.1 2-9.4 1.2 1.3-0.4 2.5-0.9 3.6-1.7 0.4-0.2 0.5-0.5 0.5-0.9s-0.3-0.7-0.6-0.8c-5.8-2.6-5.6-7.5-5-10 2.2 2.2 5.3 3.5 8.6 3.4 0.5 0 1-0.5 1-1v-1c0-1 0.4-2 1.2-2.7 1.4-1.3 3.7-1.1 4.9 0.3 0.3 0.3 0.7 0.4 1 0.3 0.2-0.1 0.5-0.1 0.7-0.2-0.2 0.3-0.4 0.5-0.6 0.8z"></path>
</symbol>
<symbol id="icon-facebook" viewBox="0 0 24 24">
<title>facebook</title>
<path d="M18 7c0.6 0 1-0.4 1-1v-4c0-0.6-0.4-1-1-1h-3c-3.3 0-6 2.7-6 6v2h-2c-0.6 0-1 0.4-1 1v4c0 0.6 0.4 1 1 1h2v7c0 0.6 0.4 1 1 1h4c0.6 0 1-0.4 1-1v-7h2c0.5 0 0.9-0.3 1-0.8l1-4c0.1-0.3 0-0.6-0.2-0.9s-0.5-0.3-0.8-0.3h-3v-2h3zM14 11h2.7l-0.5 2h-2.2c-0.6 0-1 0.4-1 1v7h-2v-7c0-0.6-0.4-1-1-1h-2v-2h2c0.6 0 1-0.4 1-1v-3c0-2.2 1.8-4 4-4h2v2h-2c-1.1 0-2 0.9-2 2v3c0 0.6 0.4 1 1 1z"></path>
</symbol>
<symbol id="icon-instagram" viewBox="0 0 24 24">
<title>instagram</title>
<path d="M17 1h-10c-3.3 0-6 2.7-6 6v10c0 3.3 2.7 6 6 6h10c3.3 0 6-2.7 6-6v-10c0-3.3-2.7-6-6-6zM21 17c0 2.2-1.8 4-4 4h-10c-2.2 0-4-1.8-4-4v-10c0-2.2 1.8-4 4-4h10c2.2 0 4 1.8 4 4v10z"></path>
<path d="M12.8 7c-0.5-0.1-1-0.1-1.5 0-2.7 0.4-4.6 3-4.2 5.7 0.2 1.3 0.9 2.5 2 3.3 0.9 0.6 1.9 1 3 1 0.2 0 0.5 0 0.7-0.1 1.3-0.2 2.5-0.9 3.3-2s1.1-2.4 0.9-3.7c-0.3-2.2-2-3.9-4.2-4.2zM14.5 13.7c-0.5 0.6-1.2 1.1-2 1.2-1.6 0.2-3.2-0.9-3.4-2.5-0.3-1.6 0.9-3.2 2.5-3.4 0.1 0 0.3 0 0.4 0s0.3 0 0.4 0c1.3 0.2 2.3 1.2 2.5 2.5 0.2 0.8 0 1.6-0.4 2.2z"></path>
<path d="M16.8 5.8c-0.2 0.2-0.3 0.4-0.3 0.7s0.1 0.5 0.3 0.7c0.2 0.2 0.5 0.3 0.7 0.3 0.3 0 0.5-0.1 0.7-0.3s0.3-0.5 0.3-0.7c0-0.3-0.1-0.5-0.3-0.7-0.4-0.4-1-0.4-1.4 0z"></path>
</symbol>
</defs>
</svg>
